<svg width="860" height="330" viewBox="0 0 860 330" xmlns="http://www.w3.org/2000/svg" role="img" aria-label="Kostiantyn Kriuchkov stats">
  <defs>
    <linearGradient id="bg" x1="0" y1="0" x2="1" y2="1">
      <stop offset="0%" stop-color="#0b1220"/>
      <stop offset="100%" stop-color="#111827"/>
    </linearGradient>
  </defs>
  <style>
    .title { font: 700 28px 'Inter', 'Segoe UI', sans-serif; fill: #f8fafc; }
    .sub { font: 500 14px 'Inter', 'Segoe UI', sans-serif; fill: #94a3b8; }
    .label { font: 600 18px 'Inter', 'Segoe UI', sans-serif; fill: #dbe7ff; }
    .value { font: 700 20px 'Inter', 'Segoe UI', sans-serif; fill: #22d3ee; }
    .muted { font: 500 13px 'Inter', 'Segoe UI', sans-serif; fill: #94a3b8; }
    .chip { fill: #111a2d; stroke: #23324f; }
    .bar-bg { fill: #1f2937; }
    .bar-fg { fill: #22d3ee; }
  </style>
<rect x="2" y="2" width="856" height="326" rx="18" fill="url(#bg)" stroke="#1f2937"/>
  <text x="34" y="45" class="title">Kostiantyn Kriuchkov · Overview</text>
  <text x="34" y="68" class="sub">Private + public metrics from GitHub API</text>
  <rect x="34" y="78" width="792" height="34" rx="8" class="chip"/><text x="48" y="102" class="label">⭐ Stars (owned repos)</text><text x="808" y="102" text-anchor="end" class="value">729</text><rect x="34" y="122" width="792" height="34" rx="8" class="chip"/><text x="48" y="146" class="label">🧩 Commits (last 365d)</text><text x="808" y="146" text-anchor="end" class="value">78</text><rect x="34" y="166" width="792" height="34" rx="8" class="chip"/><text x="48" y="190" class="label">🔀 Pull Requests (all time)</text><text x="808" y="190" text-anchor="end" class="value">815</text><rect x="34" y="210" width="792" height="34" rx="8" class="chip"/><text x="48" y="234" class="label">🐞 Issues (all time)</text><text x="808" y="234" text-anchor="end" class="value">386</text><rect x="34" y="254" width="792" height="34" rx="8" class="chip"/><text x="48" y="278" class="label">📦 Contributed repos (last 365d)</text><text x="808" y="278" text-anchor="end" class="value">11</text>
  <text x="34" y="314" class="muted">Updated: 2026-03-12 13:26 UTC</text>
</svg>