<svg width="740" height="250" viewBox="0 0 740 250" xmlns="http://www.w3.org/2000/svg" role="img" aria-label="Kostiantyn Kriuchkov top languages">
  <style>
    .title { font: 700 22px 'Inter', 'Segoe UI', sans-serif; fill: #c9d1d9; }
    .sub { font: 500 12px 'Inter', 'Segoe UI', sans-serif; fill: #8b949e; }
    .label { font: 600 14px 'Inter', 'Segoe UI', sans-serif; fill: #c9d1d9; }
    .value { font: 700 14px 'Inter', 'Segoe UI', sans-serif; fill: #58a6ff; }
    .muted { font: 500 12px 'Inter', 'Segoe UI', sans-serif; fill: #8b949e; }
    .divider { stroke: #30363d; stroke-width: 1; }
    .bar-bg { fill: #21262d; }
    .bar-fg { fill: #58a6ff; }
  </style>
<rect x="0.5" y="0.5" width="739" height="249" rx="12" fill="#0d1117" stroke="#30363d"/>
  <text x="28" y="36" class="title">Kostiantyn Kriuchkov · Top Languages</text>
  <text x="28" y="56" class="sub">Owned non-fork repos · bytes</text>
  <text x="28" y="94" class="label">Python</text><rect x="250" y="82" width="340" height="10" rx="5" class="bar-bg"/><rect x="250" y="82" width="320" height="10" rx="5" class="bar-fg"/><text x="712" y="94" text-anchor="end" class="value">6.1m · 49.1%</text><text x="28" y="120" class="label">HTML</text><rect x="250" y="108" width="340" height="10" rx="5" class="bar-bg"/><rect x="250" y="108" width="176" height="10" rx="5" class="bar-fg"/><text x="712" y="120" text-anchor="end" class="value">3.3m · 27.1%</text><text x="28" y="146" class="label">TypeScript</text><rect x="250" y="134" width="340" height="10" rx="5" class="bar-bg"/><rect x="250" y="134" width="63" height="10" rx="5" class="bar-fg"/><text x="712" y="146" text-anchor="end" class="value">1.2m · 9.8%</text><text x="28" y="172" class="label">TeX</text><rect x="250" y="160" width="340" height="10" rx="5" class="bar-bg"/><rect x="250" y="160" width="29" height="10" rx="5" class="bar-fg"/><text x="712" y="172" text-anchor="end" class="value">555.7k · 4.5%</text><text x="28" y="198" class="label">Shell</text><rect x="250" y="186" width="340" height="10" rx="5" class="bar-bg"/><rect x="250" y="186" width="18" height="10" rx="5" class="bar-fg"/><text x="712" y="198" text-anchor="end" class="value">353.6k · 2.9%</text><text x="28" y="224" class="label">Fluent</text><rect x="250" y="212" width="340" height="10" rx="5" class="bar-bg"/><rect x="250" y="212" width="13" height="10" rx="5" class="bar-fg"/><text x="712" y="224" text-anchor="end" class="value">250.4k · 2.0%</text>
  <text x="28" y="232" class="muted">Updated: 2026-03-18 06:38 UTC</text>
</svg>