<svg width="860" height="340" viewBox="0 0 860 340" xmlns="http://www.w3.org/2000/svg" role="img" aria-label="Kostiantyn Kriuchkov top languages">
  <defs>
    <linearGradient id="bg" x1="0" y1="0" x2="1" y2="1">
      <stop offset="0%" stop-color="#0b1220"/>
      <stop offset="100%" stop-color="#111827"/>
    </linearGradient>
  </defs>
  <style>
    .title { font: 700 28px 'Inter', 'Segoe UI', sans-serif; fill: #f8fafc; }
    .sub { font: 500 14px 'Inter', 'Segoe UI', sans-serif; fill: #94a3b8; }
    .label { font: 600 18px 'Inter', 'Segoe UI', sans-serif; fill: #dbe7ff; }
    .value { font: 700 20px 'Inter', 'Segoe UI', sans-serif; fill: #22d3ee; }
    .muted { font: 500 13px 'Inter', 'Segoe UI', sans-serif; fill: #94a3b8; }
    .chip { fill: #111a2d; stroke: #23324f; }
    .bar-bg { fill: #1f2937; }
    .bar-fg { fill: #22d3ee; }
  </style>
<rect x="2" y="2" width="856" height="336" rx="18" fill="url(#bg)" stroke="#1f2937"/>
  <text x="34" y="45" class="title">Kostiantyn Kriuchkov · Top Languages</text>
  <text x="34" y="68" class="sub">Aggregated bytes across owned non-fork repositories</text>
  <text x="48" y="98" class="label">Python</text><rect x="290" y="82" width="450" height="14" rx="7" class="bar-bg"/><rect x="290" y="82" width="430" height="14" rx="7" class="bar-fg"/><text x="808" y="98" text-anchor="end" class="value">6.0m · 53.4%</text><text x="48" y="132" class="label">HTML</text><rect x="290" y="116" width="450" height="14" rx="7" class="bar-bg"/><rect x="290" y="116" width="234" height="14" rx="7" class="bar-fg"/><text x="808" y="132" text-anchor="end" class="value">3.3m · 29.2%</text><text x="48" y="166" class="label">TeX</text><rect x="290" y="150" width="450" height="14" rx="7" class="bar-bg"/><rect x="290" y="150" width="39" height="14" rx="7" class="bar-fg"/><text x="808" y="166" text-anchor="end" class="value">555.7k · 4.9%</text><text x="48" y="200" class="label">TypeScript</text><rect x="290" y="184" width="450" height="14" rx="7" class="bar-bg"/><rect x="290" y="184" width="27" height="14" rx="7" class="bar-fg"/><text x="808" y="200" text-anchor="end" class="value">392.0k · 3.5%</text><text x="48" y="234" class="label">Fluent</text><rect x="290" y="218" width="450" height="14" rx="7" class="bar-bg"/><rect x="290" y="218" width="17" height="14" rx="7" class="bar-fg"/><text x="808" y="234" text-anchor="end" class="value">250.4k · 2.2%</text><text x="48" y="268" class="label">Shell</text><rect x="290" y="252" width="450" height="14" rx="7" class="bar-bg"/><rect x="290" y="252" width="17" height="14" rx="7" class="bar-fg"/><text x="808" y="268" text-anchor="end" class="value">242.8k · 2.1%</text><text x="48" y="302" class="label">Jupyter Notebook</text><rect x="290" y="286" width="450" height="14" rx="7" class="bar-bg"/><rect x="290" y="286" width="15" height="14" rx="7" class="bar-fg"/><text x="808" y="302" text-anchor="end" class="value">215.0k · 1.9%</text>
  <text x="34" y="324" class="muted">Updated: 2026-03-12 13:26 UTC</text>
</svg>